# xmcd CD database file
#
# Track frame offsets:
#	150
#	10728
#	22176
#	34727
#	54694
#	65166
#	78577
#	88389
#	101401
#	112463
#	125659
#	136378
#	146653
#	157529
#	178703
#	193666
#	205576
#	219181
#	232786
#	242949
#
# Disc length: 3382 seconds
#
# Revision: 0
# Processed by: cddbd v1.5.2PL0 Copyright (c) Steve Scherf et al.
# Submitted via: ACXtractor (MTCDDB.DLL V2003.12.21)
#
DISCID=200d3414
DTITLE=Red Solvine - The Last One
DYEAR=2002
DGENRE=Country
TTITLE0=I'll Sail My Ship
TTITLE1=Jute Joint Johnny
TTITLE2=What did You Have in Mind
TTITLE3=It's Loving Time
TTITLE4=Mr F.C.C.
TTITLE5=Old Timers Advice
TTITLE6=Ten Days Out and Two Days In
TTITLE7=Girl on the Billboard
TTITLE8=Yankee go Home
TTITLE9=Nitro Express
TTITLE10=Class of 49
TTITLE11=In Your Heart
TTITLE12=Normally Norma Loves Me
TTITLE13=Tell Maud I Slipped
TTITLE14=Just Getting By
TTITLE15=You Left Your Door Wide Open
TTITLE16=Love is All She Asked of Me
TTITLE17=It Happens Every Night
TTITLE18=Cold Love to Go
TTITLE19=These Two Empty Arms
EXTD=ID3G:   2 YEAR: 2002
EXTT0=
EXTT1=
EXTT2=
EXTT3=
EXTT4=
EXTT5=
EXTT6=
EXTT7=
EXTT8=
EXTT9=
EXTT10=
EXTT11=
EXTT12=
EXTT13=
EXTT14=
EXTT15=
EXTT16=
EXTT17=
EXTT18=
EXTT19=
PLAYORDER=
